<mxfile host="app.diagrams.net" modified="2023-07-07T08:45:56.580Z" agent="Mozilla/5.0 (Windows NT 10.0; Win64; x64) AppleWebKit/537.36 (KHTML, like Gecko) Chrome/114.0.0.0 Safari/537.36 Edg/114.0.1823.67" etag="zF2NhlaIk8-3bz25_7yq" version="21.6.1" type="github">
  <diagram name="Page-1" id="RQDwMZhb76RqrW_FVvwn">
    <mxGraphModel dx="1379" dy="908" grid="1" gridSize="10" guides="1" tooltips="1" connect="1" arrows="1" fold="1" page="1" pageScale="1" pageWidth="850" pageHeight="1100" math="0" shadow="0">
      <root>
        <mxCell id="0" />
        <mxCell id="1" parent="0" />
        <mxCell id="NBgs3L3ys3uCXVHcu4_S-1" value="Server" style="whiteSpace=wrap;html=1;aspect=fixed;fillColor=#f8cecc;strokeColor=#b85450;" vertex="1" parent="1">
          <mxGeometry x="80" y="220" width="160" height="160" as="geometry" />
        </mxCell>
        <mxCell id="NBgs3L3ys3uCXVHcu4_S-14" value="" style="edgeStyle=orthogonalEdgeStyle;rounded=0;orthogonalLoop=1;jettySize=auto;html=1;fillColor=#f8cecc;strokeColor=#b85450;" edge="1" parent="1" source="NBgs3L3ys3uCXVHcu4_S-4" target="NBgs3L3ys3uCXVHcu4_S-13">
          <mxGeometry relative="1" as="geometry" />
        </mxCell>
        <mxCell id="NBgs3L3ys3uCXVHcu4_S-4" value="Connection" style="whiteSpace=wrap;html=1;aspect=fixed;fillColor=#f8cecc;strokeColor=#b85450;" vertex="1" parent="1">
          <mxGeometry x="345" y="250" width="80" height="80" as="geometry" />
        </mxCell>
        <mxCell id="NBgs3L3ys3uCXVHcu4_S-8" value="" style="endArrow=classic;html=1;rounded=0;exitX=1;exitY=0.75;exitDx=0;exitDy=0;entryX=0;entryY=0.5;entryDx=0;entryDy=0;fillColor=#f8cecc;strokeColor=#b85450;" edge="1" parent="1" target="NBgs3L3ys3uCXVHcu4_S-4">
          <mxGeometry width="50" height="50" relative="1" as="geometry">
            <mxPoint x="240" y="280" as="sourcePoint" />
            <mxPoint x="440" y="280" as="targetPoint" />
          </mxGeometry>
        </mxCell>
        <mxCell id="NBgs3L3ys3uCXVHcu4_S-13" value="Client" style="whiteSpace=wrap;html=1;fillColor=#f8cecc;strokeColor=#b85450;" vertex="1" parent="1">
          <mxGeometry x="550" y="270" width="120" height="60" as="geometry" />
        </mxCell>
      </root>
    </mxGraphModel>
  </diagram>
</mxfile>
